# AST/ASF file generated using VICON BodyLanguage
# -----------------------------------------------
:version 1.10
:name VICON
:units
  mass 1.0
  length 0.45
  angle deg
:documentation
   .ast/.asf automatically generated from VICON data using
   VICON BodyBuilder and BodyLanguage model FoxedUp or BRILLIANT.MOD
:root
   order TX TY TZ RX RY RZ
   axis XYZ
   position 0 0 0  
   orientation 0 0 0 
:bonedata
  begin
     id 1 
     name lhipjoint
     direction 0.710188 -0.616876 0.339259 
     length 2.5669 
     axis 0 0 0  XYZ
  end
  begin
     id 2 
     name lfemur
     direction 0.34202 -0.939693 0  
     length 7.12796  
     axis 0 0 20  XYZ
    dof rx ry rz
    limits (-160.0 20.0)
           (-70.0 70.0)
           (-60.0 70.0)
  end
  begin
     id 3 
     name ltibia
     direction 0.34202 -0.939693 0   
     length 7.58108   
     axis 0 0 20   XYZ
    dof rx
    limits (-10.0 170.0)
  end
  begin
     id 4 
     name lfoot
     direction 0.0669471 -0.183936 0.980656   
     length 2.17365   
     axis -90 7.62852e-016 20   XYZ
    dof rx rz
    limits (-45.0 90.0)
           (-70.0 20.0)
  end
  begin
     id 5 
     name ltoes
     direction 1.53508e-011 -4.21705e-011 1   
     length 1.09427   
     axis -90 7.62852e-016 20   XYZ
    dof rx
    limits (-90.0 20.0)
  end
  begin
     id 6 
     name rhipjoint
     direction -0.700191 -0.625589 0.34405   
     length 2.53115  
     axis 0 0 0  XYZ 
  end
  begin
     id 7 
     name rfemur
     direction -0.34202 -0.939693 0   
     length 7.33006   
     axis 0 0 -20   XYZ
    dof rx ry rz
    limits (-160.0 20.0)
           (-70.0 70.0)
           (-70.0 60.0)
  end
  begin
     id 8 
     name rtibia
     direction -0.34202 -0.939693 0   
     length 7.64926   
     axis 0 0 -20   XYZ
    dof rx
    limits (-10.0 170.0)
 end
 begin
     id 9 
     name rfoot
     direction -0.0688927 -0.189281 0.979503   
     length 2.20493  
     axis -90 -7.62852e-016 -20   XYZ
    dof rx rz
    limits (-45.0 90.0)
           (-20.0 70.0)
  end
  begin
     id 10 
     name rtoes
     direction -1.53567e-011 -4.21933e-011 1   
     length 1.10919   
     axis -90 -7.62852e-016 -20   XYZ
    dof rx
    limits (-90.0 20.0)
  end
  begin
     id 11 
     name lowerback
     direction -0.0167868 0.989873 -0.140959   
     length 2.14596   
     axis 0 0 0   XYZ
    dof rx ry rz
    limits (-20.0 45.0)
           (-30.0 30.0)
           (-30.0 30.0)
  end
  begin
     id 12 
     name upperback
     direction 0.0129109 0.998033 0.0613525   
     length 2.10457   
     axis 0 0 0   XYZ
    dof rx ry rz
    limits (-20.0 45.0)
           (-30.0 30.0)
           (-30.0 30.0)
  end
  begin
     id 13 
     name thorax
     direction 0.0177047 0.991119 0.131797   
     length 2.17652   
     axis 0 0 0   XYZ
    dof rx ry rz
    limits (-20.0 45.0)
           (-30.0 30.0)
           (-30.0 30.0)
  end
  begin
     id 14 
     name lowerneck
     direction -0.0336893 0.997548 0.0613464   
     length 1.8912   
     axis 0 0 0   XYZ
    dof rx ry rz
    limits (-20.0 45.0)
           (-30.0 30.0)
           (-30.0 30.0)
  end
  begin
     id 15 
     name upperneck
     direction 0.0435909 0.997179 -0.0611028   
     length 1.8829   
     axis 0 0 0   XYZ
    dof rx ry rz
    limits (-20.0 45.0)
           (-30.0 30.0)
           (-30.0 30.0)
  end
  begin
     id 16
     name head
     direction 0.0175076 0.999444 -0.0283782  
     length 1.93197  
     axis 0 0 0   XYZ
    dof rx ry rz
    limits (-20.0 45.0)
           (-30.0 30.0)
           (-30.0 30.0)
  end
  begin
     id 17 
     name lclavicle
     direction 0.919164 0.389875 0.0559876  
     length 3.60004  
     axis 0 0 0   XYZ
    dof ry rz
    limits (-20.0 10.0)
           (0.0 20.0)
  end
  begin
     id 18 
     name lhumerus
     direction 1 -4.48958e-011 6.89191e-027   
     length 5.43301   
     axis 180 -30 -90   XYZ
    dof rx ry rz
    limits (-60.0 90.0)
           (-90.0 90.0)
           (-90.0 90.0)
  end
  begin
     id 19
     name lradius
     direction 1 -4.4897e-011 3.24727e-027   
     length 3.15936   
     axis 180 -30 -90   XYZ
    dof rx
    limits (-10.0 170.0)
  end
  begin
     id 20
     name lwrist
     direction 1 -4.4897e-011 9.00228e-027   
     length 1.57968   
     axis -6.29373e-015 90 90   XYZ
    dof ry
    limits (-180.0 0.0)
 end
  begin
     id 21 
     name lhand
     direction 1 -4.48968e-011 1.80042e-026   
     length 0.712827   
     axis -1.14882e-014 90 90   XYZ
    dof rx rz
    limits (-90.0 90.0)
           (-45.0 45.0)
  end
  begin
     id 22 
     name lfingers
     direction 1 -4.49019e-011 3.60267e-026   
     length 0.574699   
     axis -2.29769e-014 90 90   XYZ
    dof rx
    limits (0.0 90.0)
  end
  begin
     id 23
     name lthumb
     direction 0.707107 -6.3498e-011 0.707107   
     length 0.825157   
     axis -90 45 5.37419e-014   XYZ
    dof rx rz
    limits (-45.0 45.0)
           (-45.0 45.0)
  end
  begin
     id 24 
     name rclavicle
     direction -0.890334 0.455305 -0.00132111   
     length 3.51494  
     axis 0 0 0   XYZ 
    dof ry rz
    limits (-10.0 20.0)
           (-20.0 0.0)
  end
  begin
     id 25 
     name rhumerus
     direction -1 -4.48967e-011 5.07175e-028  
     length 5.34194   
     axis 180 30 90   XYZ
    dof rx ry rz
    limits (-90.0 60.0)
           (-90.0 90.0)
           (-90.0 90.0)
  end
  begin
     id 26 
     name rradius
     direction -1 -4.48955e-011 3.30467e-027   
     length 3.19351   
     axis 180 30 90   XYZ
    dof rx
    limits (-10.0 170.0)
  end
  begin
     id 27 
     name rwrist
     direction -1 -4.48968e-011 9.00208e-027   
     length 1.59676   
     axis -6.29373e-015 -90 -90   XYZ
    dof ry
    limits (-180.0 0.0)
  end
  begin
     id 28
     name rhand
     direction -1 -4.49e-011 1.80099e-026   
     length 0.743862   
     axis -1.14882e-014 -90 -90   XYZ
    dof rx rz
    limits (-90.0 90.0)
           (-45.0 45.0)
  end
  begin
     id 29
     name rfingers
     direction -1 -4.49009e-011 3.6023e-026   
     length 0.599721   
     axis -2.29769e-014 -90 -90   XYZ
    dof rx
    limits (0.0 90.0)
  end
  begin
     id 30
     name rthumb
     direction -0.707107 -6.35025e-011 0.707107   
     length 0.861083   
     axis -90 -45 -5.37419e-014   XYZ
    dof rx rz
    limits (-45.0 45.0)
           (-45.0 45.0)
  end
:hierarchy
  begin
    root lhipjoint rhipjoint lowerback
    lhipjoint lfemur
    lfemur ltibia
    ltibia lfoot
    lfoot ltoes
    rhipjoint rfemur
    rfemur rtibia
    rtibia rfoot
    rfoot rtoes
    lowerback upperback
    upperback thorax
    thorax lowerneck lclavicle rclavicle
    lowerneck upperneck
    upperneck head
    lclavicle lhumerus
    lhumerus lradius
    lradius lwrist
    lwrist lhand lthumb
    lhand lfingers
    rclavicle rhumerus
    rhumerus rradius
    rradius rwrist
    rwrist rhand rthumb
    rhand rfingers
  end

#!OML:ASF H:\Martial Arts Walks\Project 1\Capture day 1\Session 1\male.ASF
:FULLY-SPECIFIED
:DEGREES
740
root 0.551833 14.0291 9.4964 4.73328 -8.2135 8.16739
lowerback 18.8151 -0.559418 -13.5632
upperback -0.591213 -3.82189 -0.461199
thorax -10.4539 -1.07905 8.22386
lowerneck -4.39389 1.81818 -1.72694
upperneck 0.721515 2.47584 2.06566
head 0.907025 1.2605 0.976444
rclavicle 7.7526e-014 9.49197e-015
rhumerus -50.6061 19.3205 -93.3437
rradius 116.063
rwrist -60.5012
rhand 11.7534 -20.2858
rfingers 7.12502
rthumb 36.7875 -46.405
lclavicle 7.7526e-014 9.49197e-015
lhumerus 41.3504 -11.2096 61.1003
lradius 45.7538
lwrist -25.0383
lhand -23.9119 47.562
lfingers 7.12502
lthumb 2.56241 77.5263
rfemur -68.7688 -2.07455 21.1278
rtibia 99.6777
rfoot -14.8167 -5.60494
rtoes -13.7302
lfemur -35.0434 13.358 -33.3013
ltibia 74.8999
lfoot -28.0092 31.9556
ltoes -16.7068
741
root 0.516357 14.0445 9.71376 4.34418 -6.8233 8.17167
lowerback 18.7839 -0.564506 -13.2745
upperback -0.527029 -3.74554 -0.399184
thorax -10.3906 -1.06486 8.10817
lowerneck -4.25896 1.37569 -2.04694
upperneck 0.958158 1.89372 2.26094
head 0.967032 0.970495 1.08191
rclavicle 1.22253e-014 4.14342e-014
rhumerus -47.1271 20.0443 -91.8725
rradius 118.434
rwrist -59.327
rhand 15.2889 -18.5047
rfingers 7.12502
rthumb 40.1235 -43.6933
lclavicle 1.22253e-014 4.14342e-014
lhumerus 39.3162 -14.6198 61.1352
lradius 50.2166
lwrist -23.3363
lhand -23.1473 46.3149
lfingers 7.12502
lthumb 3.30088 76.2691
rfemur -69.9286 -2.01499 20.7293
rtibia 96.5258
rfoot -14.9319 -4.56001
rtoes -13.0193
lfemur -33.1459 12.8464 -32.8432
ltibia 74.2243
lfoot -28.7169 31.8098
ltoes -16.8335
742
root 0.480055 14.0649 9.93628 3.99037 -5.35867 8.07886
lowerback 18.6835 -0.592803 -12.9125
upperback -0.464937 -3.66742 -0.279442
thorax -10.2903 -1.05467 8.01157
lowerneck -4.1368 0.919987 -2.41824
upperneck 1.2208 1.29484 2.47212
head 1.04109 0.671844 1.20193
rclavicle 2.23881e-014 -2.40529e-014
rhumerus -43.0146 20.6516 -89.9027
rradius 120.458
rwrist -57.8031
rhand 19.0431 -16.684
rfingers 7.12502
rthumb 43.6427 -40.6989
lclavicle 2.23881e-014 -2.40529e-014
lhumerus 36.9515 -18.0751 61.7302
lradius 54.8919
lwrist -21.1567
lhand -22.4086 44.4489
lfingers 7.12502
lthumb 4.01425 74.3908
rfemur -70.767 -2.14615 20.1961
rtibia 93.0552
rfoot -14.6184 -3.50377
rtoes -12.0007
lfemur -31.2505 12.3158 -32.2651
ltibia 73.5025
lfoot -29.4565 31.5857
ltoes -16.8226
743
root 0.442799 14.0894 10.1627 3.65827 -3.84499 7.91879
lowerback 18.5276 -0.62998 -12.5156
upperback -0.41191 -3.58172 -0.106197
thorax -10.1684 -1.04205 7.95028
lowerneck -4.0193 0.451521 -2.87191
upperneck 1.51521 0.680763 2.70847
head 1.13065 0.365089 1.34492
rclavicle 1.13059e-014 -5.35725e-014
rhumerus -38.2775 20.9627 -87.4139
rradius 121.996
rwrist -56.0462
rhand 23.3463 -14.544
rfingers 7.12502
rthumb 47.6387 -36.9236
lclavicle 1.13059e-014 -5.35725e-014
lhumerus 34.1313 -21.5447 62.9616
lradius 59.7139
lwrist -18.507
lhand -21.672 42.0835
lfingers 7.12502
lthumb 4.72553 72.0108
rfemur -71.2755 -2.42503 19.5103
rtibia 89.284
rfoot -13.7383 -2.40169
rtoes -10.7341
lfemur -29.3567 11.7836 -31.5933
ltibia 72.7265
lfoot -30.2098 31.2812
ltoes -16.709
744
root 0.404464 14.1177 10.3927 3.32263 -2.31176 7.73496
lowerback 18.3341 -0.66604 -12.1327
upperback -0.372092 -3.49163 0.105839
thorax -10.0379 -1.0251 7.93727
lowerneck -3.88237 -0.026894 -3.40432
upperneck 1.83699 0.0544603 2.95532
head 1.23146 0.0510727 1.50569
rclavicle -2.23633e-015 8.34896e-015
rhumerus -32.9637 20.8069 -84.4985
rradius 122.868
rwrist -54.1251
rhand 28.4681 -11.8992
rfingers 7.12502
rthumb 52.3246 -31.8101
lclavicle -2.23633e-015 8.34896e-015
lhumerus 30.7158 -24.9665 64.8859
lradius 64.599
lwrist -15.4679
lhand -20.8342 39.4026
lfingers 7.12502
lthumb 5.53439 69.3103
rfemur -71.4281 -2.79912 18.6291
rtibia 85.2294
rfoot -12.1526 -1.19552
rtoes -9.28117
lfemur -27.4358 11.269 -30.868
ltibia 71.8786
lfoot -30.966 30.9022
ltoes -16.5295
745
root 0.364797 14.1488 10.6262 2.97346 -0.790435 7.55811
lowerback 18.1161 -0.689863 -11.7978
upperback -0.351954 -3.39405 0.342055
thorax -9.91368 -0.999711 7.97567
lowerneck -3.70215 -0.517743 -3.9788
upperneck 2.17556 -0.589213 3.16909
head 1.33671 -0.273711 1.66368
rclavicle -2.80783e-014 -2.5842e-014
rhumerus -27.1834 20.0581 -81.3539
rradius 122.907
rwrist -52.1496
rhand 34.5647 -8.77508
rfingers 7.12502
rthumb 57.7573 -24.7123
lclavicle -2.80783e-014 -2.5842e-014
lhumerus 26.5694 -28.2554 67.5582
lradius 69.4686
lwrist -12.1427
lhand -19.6539 36.6632
lfingers 7.12502
lthumb 6.67395 66.538
rfemur -71.2196 -3.20358 17.5238
rtibia 80.9095
rfoot -9.77465 0.168223
rtoes -7.63585
lfemur -25.4785 10.794 -30.1207
ltibia 70.9479
lfoot -31.6803 30.4794
ltoes -16.3615
746
root 0.324002 14.182 10.8634 2.60425 0.69112 7.40897
lowerback 17.8751 -0.692237 -11.5118
upperback -0.357806 -3.27965 0.581728
thorax -9.80723 -0.961045 8.04116
lowerneck -3.44385 -1.02389 -4.5575
upperneck 2.52125 -1.25664 3.311
head 1.43681 -0.613324 1.79917
rclavicle -2.6985e-014 2.74323e-014
rhumerus -21.1108 18.667 -78.2661
rradius 121.977
rwrist -50.2151
rhand 41.7956 -5.13242
rfingers 7.12502
rthumb 63.8659 -14.0911
lclavicle -2.6985e-014 2.74323e-014
lhumerus 21.5738 -31.312 71.0381
lradius 74.2321
lwrist -8.58913
lhand -17.8772 34.2243
lfingers 7.12502
lthumb 8.38884 64.0377
rfemur -70.646 -3.58165 16.1833
rtibia 76.346
rfoot -6.59103 1.70538
rtoes -5.91577
lfemur -23.4702 10.3683 -29.3773
ltibia 69.9218
lfoot -32.3223 30.0504
ltoes -16.2377
747
root 0.282503 14.2165 11.1044 2.21451 2.09999 7.30076
lowerback 17.6055 -0.66324 -11.2779
upperback -0.386005 -3.1359 0.811087
thorax -9.71463 -0.903931 8.11695
lowerneck -3.12592 -1.53156 -5.12416
upperneck 2.88678 -1.93011 3.37337
head 1.53728 -0.959019 1.90704
rclavicle 2.98177e-015 5.1684e-015
rhumerus -14.9207 16.7399 -75.5222
rradius 119.998
rwrist -48.4746
rhand 50.0885 -1.01909
rfingers 7.12502
rthumb 70.0095 3.27605
lclavicle 2.98177e-015 5.1684e-015
lhumerus 15.6532 -34.0177 75.3499
lradius 78.8214
lwrist -4.72935
lhand -15.505 32.507
lfingers 7.12502
lthumb 10.6777 62.2157
rfemur -69.7252 -3.87618 14.6172
rtibia 71.566
rfoot -2.67256 3.38655
rtoes -4.18355
lfemur -21.409 10.0044 -28.661
ltibia 68.795
lfoot -32.8539 29.6657
ltoes -16.1921
748
root 0.241183 14.2521 11.349 1.80849 3.41799 7.24251
lowerback 17.3043 -0.60248 -11.0774
upperback -0.423754 -2.95867 1.01069
thorax -9.62263 -0.82941 8.16939
lowerneck -2.81769 -2.03057 -5.65543
upperneck 3.2986 -2.59385 3.35543
head 1.65677 -1.30248 1.98267
rclavicle -1.07344e-014 -4.77083e-015
rhumerus -8.76812 14.4688 -73.3433
rradius 116.966
rwrist -47.1054
rhand 58.9201 2.98352
rfingers 7.12502
rthumb 74.3308 31.6339
lclavicle -1.07344e-014 -4.77083e-015
lhumerus 8.76695 -36.2132 80.4779
lradius 83.1772
lwrist -0.47564
lhand -12.9279 31.8614
lfingers 7.12502
lthumb 13.1627 61.4259
rfemur -68.4835 -4.0546 12.8501
rtibia 66.6065
rfoot 1.85185 5.16248
rtoes -2.43393
lfemur -19.2934 9.69766 -27.9961
ltibia 67.5629
lfoot -33.2351 29.3829
ltoes -16.2096
749
root 0.200974 14.2881 11.5968 1.39753 4.63548 7.24141
lowerback 16.9685 -0.515288 -10.8954
upperback -0.461971 -2.75245 1.16304
thorax -9.51955 -0.742019 8.17123
lowerneck -2.5812 -2.5042 -6.13261
upperneck 3.77279 -3.22213 3.27527
head 1.80917 -1.63013 2.02809
rclavicle 4.87022e-015 2.3059e-014
rhumerus -2.78147 12.0988 -71.8313
rradius 112.939
rwrist -46.185
rhand 67.2119 5.31987
rfingers 7.12502
rthumb 74.5228 64.1128
lclavicle 4.87022e-015 2.3059e-014
lhumerus 0.936765 -37.7092 86.3173
lradius 87.2577
lwrist 4.23587
lhand -10.7532 32.3923
lfingers 7.12502
lthumb 15.2582 61.8096
rfemur -66.9686 -4.0997 10.9231
rtibia 61.5252
rfoot 6.75471 6.96597
rtoes -0.723991
lfemur -17.1372 9.4353 -27.4044
ltibia 66.2332
lfoot -33.4594 29.2268
ltoes -16.2633
750
root 0.162694 14.323 11.8475 0.990032 5.74865 7.30699
lowerback 16.5973 -0.412924 -10.7254
upperback -0.486849 -2.53187 1.24633
thorax -9.38692 -0.65143 8.09763
lowerneck -2.46356 -2.94746 -6.51724
upperneck 4.30095 -3.80495 3.14621
head 1.99807 -1.93587 2.03951
rclavicle -1.04362e-014 7.15625e-015
rhumerus 2.93589 9.83513 -70.983
rradius 107.977
rwrist -45.4798
rhand 73.7293 3.68287
rfingers 7.12502
rthumb 71.8579 82.3462
lclavicle -1.04362e-014 7.15625e-015
lhumerus -7.66914 -38.3044 92.5883
lradius 91.0055
lwrist 9.3881
lhand -9.5039 33.9632
lfingers 7.12502
lthumb 16.4613 63.2848
rfemur -65.2348 -4.00474 8.87528
rtibia 56.4092
rfoot 11.7358 8.69889
rtoes 0.997874
lfemur -14.9501 9.20465 -26.9082
ltibia 64.8233
lfoot -33.5572 29.2
ltoes -16.3009
751
root 0.126691 14.3537 12.0997 0.612842 6.76683 7.43459
lowerback 16.1973 -0.30841 -10.5532
upperback -0.498377 -2.31378 1.24213
thorax -9.22519 -0.566655 7.92476
lowerneck -2.5052 -3.36226 -6.76391
upperneck 4.87115 -4.34247 2.98496
head 2.22507 -2.21812 2.0128
rclavicle -1.26228e-014 -2.46493e-014
rhumerus 8.30825 7.80239 -70.7045
rradius 102.122
rwrist -44.3915
rhand 76.8685 -3.42881
rfingers 7.12502
rthumb 69.9525 82.4572
lclavicle -1.26228e-014 -2.46493e-014
lhumerus -16.7666 -37.8291 98.8629
lradius 94.3515
lwrist 14.8055
lhand -9.34165 36.1211
lfingers 7.12502
lthumb 16.6175 65.4297
rfemur -63.3672 -3.77999 6.76253
rtibia 51.3838
rfoot 16.4789 10.1712
rtoes 2.80971
lfemur -12.7808 8.97915 -26.511
ltibia 63.3715
lfoot -33.5515 29.2959
ltoes -16.3157
752
root 0.0923305 14.3772 12.3532 0.279539 7.70328 7.62126
lowerback 15.7727 -0.207035 -10.4035
upperback -0.490856 -2.1102 1.1454
thorax -9.02643 -0.492829 7.665
lowerneck -2.67703 -3.76113 -6.85977
upperneck 5.41588 -4.85461 2.82744
head 2.46341 -2.48451 1.95656
rclavicle 2.43511e-014 -1.11319e-014
rhumerus 13.3252 6.08346 -70.8306
rradius 95.3468
rwrist -42.0472
rhand 75.101 -12.6949
rfingers 7.12502
rthumb 71.0642 69.3061
lclavicle 2.43511e-014 -1.11319e-014
lhumerus -25.93 -36.2331 104.587
lradius 97.2182
lwrist 20.259
lhand -10.0091 38.3235
lfingers 7.12502
lthumb 15.9749 67.6848
rfemur -61.4451 -3.44132 4.63661
rtibia 46.6144
rfoot 20.7076 11.0909
rtoes 4.64026
lfemur -10.6627 8.73796 -26.2082
ltibia 61.9198
lfoot -33.4698 29.5021
ltoes -16.3215
753
root 0.057659 14.3904 12.607 -0.00598811 8.6026 7.85866
lowerback 15.3593 -0.0904085 -10.3669
upperback -0.474763 -1.91294 1.00288
thorax -8.82014 -0.417879 7.42391
lowerneck -2.91277 -4.1808 -6.84913
upperneck 5.87606 -5.39467 2.6876
head 2.68499 -2.76093 1.88217
rclavicle -2.60408e-014 -3.57812e-014
rhumerus 18.0326 4.72288 -71.0685
rradius 87.5654
rwrist -37.6753
rhand 67.8306 -18.2701
rfingers 7.12502
rthumb 74.364 42.671
lclavicle -2.60408e-014 -3.57812e-014
lhumerus -34.6977 -33.6438 109.292
lradius 99.5145
lwrist 25.5867
lhand -10.9741 39.9995
lfingers 7.12502
lthumb 15.0454 69.4328
rfemur -59.5375 -3.03432 2.54711
rtibia 42.291
rfoot 24.2322 11.1977
rtoes 6.45154
lfemur -8.62929 8.45723 -25.9813
ltibia 60.5222
lfoot -33.3288 29.8136
ltoes -16.3675
754
root 0.0202399 14.3917 12.8615 -0.258776 9.52236 8.15037
lowerback 14.9636 0.0517395 -10.4483
upperback -0.447415 -1.70871 0.803832
thorax -8.61067 -0.335545 7.18975
lowerneck -3.08979 -4.66724 -6.80309
upperneck 6.18367 -6.03515 2.64212
head 2.85266 -3.0821 1.82718
rclavicle 4.19933e-014 7.15625e-015
rhumerus 22.5302 3.67566 -71.21
rradius 78.6442
rwrist -30.8045
rhand 55.4751 -18.2555
rfingers 7.12502
rthumb 73.044 -0.552778
lclavicle 4.19933e-014 7.15625e-015
lhumerus -42.6405 -30.4414 112.56
lradius 101.073
lwrist 30.8045
lhand -11.109 41.3248
lfingers 7.12502
lthumb 14.9155 70.7678
rfemur -57.68 -2.63557 0.545364
rtibia 38.6037
rfoot 27.0089 10.4394
rtoes 8.16045
lfemur -6.68515 8.11377 -25.8188
ltibia 59.2322
lfoot -33.1533 30.2294
ltoes -16.4856
